<svg xmlns="http://www.w3.org/2000/svg" viewBox="0 0 512 512">
  <defs>
    <linearGradient id="bg" x1="0" y1="0" x2="1" y2="1">
      <stop offset="0" stop-color="#0ea5e9"/>
      <stop offset="1" stop-color="#1e3a8a"/>
    </linearGradient>
    <linearGradient id="wave" x1="0" y1="0" x2="0" y2="1">
      <stop offset="0" stop-color="#ffffff" stop-opacity="0.95"/>
      <stop offset="1" stop-color="#bae6fd" stop-opacity="0.9"/>
    </linearGradient>
  </defs>
  <rect width="512" height="512" rx="112" fill="url(#bg)"/>
  <!-- waves -->
  <path d="M0 360 C 80 320, 160 400, 256 360 S 432 320, 512 360 L 512 512 L 0 512 Z" fill="url(#wave)"/>
  <path d="M0 420 C 96 384, 176 452, 272 420 S 448 384, 512 420 L 512 512 L 0 512 Z" fill="#e0f2fe"/>
  <!-- surfer -->
  <g fill="#0f172a">
    <circle cx="256" cy="180" r="34"/>
    <path d="M256 214 c-46 0 -70 30 -76 62 l-44 60 c-8 12 8 26 20 18 l52 -40 c40 18 96 18 136 0 l52 40 c12 8 28 -6 20 -18 l-44 -60 c-6 -32 -30 -62 -76 -62 z"/>
    <path d="M150 320 q 106 -44 212 0 q -20 34 -106 34 t -106 -34 z" fill="#fbbf24"/>
  </g>
  <!-- board underline -->
  <path d="M128 356 q 128 -50 256 0" stroke="#f59e0b" stroke-width="18" stroke-linecap="round" fill="none"/>
</svg>
